<?xml version="1.0" encoding="utf-8"?>
<!-- Generator: Adobe Illustrator 27.5.0, SVG Export Plug-In . SVG Version: 6.00 Build 0)  -->
<svg version="1.1" id="Capa_1" xmlns="http://www.w3.org/2000/svg" xmlns:xlink="http://www.w3.org/1999/xlink" x="0px" y="0px"
	 viewBox="0 0 2579.1 491.4" style="enable-background:new 0 0 2579.1 491.4;" xml:space="preserve">
<style type="text/css">
	.st0{fill:#FFFFFF;}
</style>
<g>
	<path class="st0" d="M98,154.9c-1.8-7.4-1.4-15.3-0.4-19.4c2.5-11.7,10.5-24.9,33.8-24.9c21.6,0,34.3,13.4,34.3,33.5
		c0,6.8,0,22.9,0,22.9h92v-25.9c-0.1-80.2-72.3-93-124.5-93c-65.5,0-119,21.8-128.8,81.9c-2.7,16.5-3.2,31.1,0.7,49.7
		c15.9,75.4,147,97.2,166,144.8c3.5,8.9,2.5,20.3,0.7,27.2c-3,12.4-11.3,24.9-36,24.9c-23,0-36.8-13.4-36.8-33.6l-0.1-35.5H0v28.2
		c0,82.5,64.8,107.2,134.1,107.2c66.6,0,121.3-22.7,130.2-84.4c4.4-31.8,1.1-52.5-0.4-60.3C248.3,221,108.5,198.1,98,154.9z
		 M1297.1,155.9c-1.7-7.3-1.2-15-0.3-19c2.6-11.8,10.6-24.7,33.4-24.7c21.3,0,33.8,13.3,33.8,33.2c0,6.8,0,22.5,0,22.5h90.9v-25.7
		c0-79.4-71.2-91.9-122.8-91.9c-65,0-118,21.4-127.7,81.2c-2.5,16.3-3.2,30.7,0.9,49.1c15.8,74.6,145.5,96.2,164.4,143.3
		c3.3,8.9,2.4,20.3,0.7,27c-2.8,12.3-11.1,24.6-35.5,24.6c-23,0-36.8-13.2-36.8-33.1V307h-97.9v28.1c0,81.5,63.8,106.1,132.6,106.1
		c65.9,0,120.2-22.5,129-83.5c4.2-31.5,1.1-52.1-0.6-59.8C1445.8,221.5,1307.5,198.5,1297.1,155.9z M2134.2,356.7l-86.8-296.8
		h-136.8v364.9h90.5l-5.3-306.4l93.2,306.4h131.2V59.9h-91L2134.2,356.7z M394.7,59.9l-68.3,368.7H426l51.5-341.3l50.3,341.3h98.9
		l-68-368.7H394.7z M951.6,59.9l-46.5,288.2L858.6,59.9H708.2l-8,368.7h92.2l2.5-341.3l63.4,341.3h93.5l63.5-341.3l2.5,341.3h92.4
		l-8.2-368.7L951.6,59.9L951.6,59.9z M1808.4,59.9h-93.2v272.8c0.2,4.8,0,10.1-0.8,14c-1.9,9.1-9.7,26.8-35.4,26.8
		c-25.4,0-33.4-17.6-35.1-26.8c-0.9-3.9-1.1-9.2-0.9-14V59.9h-93.2v264.3c-0.1,6.8,0.4,20.8,0.8,24.4c6.5,68.9,60.7,91.3,128.5,91.3
		c67.9,0,122.2-22.4,128.7-91.3c0.5-3.6,1.2-17.5,0.8-24.4V59.9z M2448.6,221.6v53.8h37.8v53.4c0.1,4.8-0.2,9.9-1,14
		c-1.5,9.9-11,26.9-37.7,26.9c-26.7,0-35.9-16.9-37.5-26.9c-0.7-4.1-1-9.3-1-14V160.2c0-6,0.4-12.5,1.7-17.4
		c1.8-9,9.8-26.7,36.6-26.7c28.2,0,35.3,18.7,36.9,26.7c1.1,5.3,1.1,14.2,1.1,14.2v20.5h92.9v-12.1c0,0,0.4-12.6-0.7-24.4
		c-7-69.2-64-91-129.3-91c-65.5,0-121.3,22.1-129.4,91c-0.7,6.3-1.9,17.7-1.9,24.4v155c0,6.8,0.2,12,1.5,24.4
		c6.1,67.2,64.4,91.1,129.6,91.1c65.6,0,123.5-23.9,129.6-91.1c1.1-12.3,1.2-17.5,1.4-24.4v-98.8H2448.6z"/>
</g>
</svg>
